<svg version="1.1" id="Layer_1" xmlns="http://www.w3.org/2000/svg" xmlns:xlink="http://www.w3.org/1999/xlink" x="0px" y="0px"
	 width="100%" viewBox="0 0 992 976" enable-background="new 0 0 992 976" xml:space="preserve">
<path fill="#000000" opacity="1.000000" stroke="none" 
	d="
M428.000061,259.690125 
	C480.657227,259.692413 532.814331,259.691620 584.971497,259.700378 
	C595.239563,259.702087 598.329773,262.820160 598.330566,273.118134 
	C598.335693,336.939789 598.337769,400.761444 598.345520,464.583099 
	C598.346375,472.028107 598.359863,472.035431 605.693054,472.035217 
	C664.182312,472.033569 722.671631,472.026550 781.160889,472.033081 
	C783.657837,472.033356 786.177856,471.957275 788.647339,472.250793 
	C795.321777,473.044159 798.306885,476.443604 798.322937,483.228271 
	C798.363098,500.225067 798.335693,517.221985 798.336121,534.218872 
	C798.337891,599.206970 798.341064,664.195129 798.340576,729.183228 
	C798.340454,739.156128 795.184631,742.308838 785.213928,742.308777 
	C662.569702,742.308472 539.925476,742.307190 417.281219,742.303833 
	C406.593597,742.303589 403.651245,739.366577 403.649536,728.690186 
	C403.639435,664.868530 403.635315,601.046875 403.625092,537.225220 
	C403.623962,530.029480 403.612091,530.022400 396.543793,530.020264 
	C337.388000,530.002625 278.232208,529.992371 219.076431,529.955017 
	C216.752914,529.953552 214.393997,529.910645 212.113342,529.523376 
	C206.851791,528.629822 203.933044,525.220581 203.672562,519.971924 
	C203.606567,518.641846 203.648712,517.306213 203.648666,515.973145 
	C203.646286,435.154602 203.643890,354.336060 203.643982,273.517517 
	C203.643982,262.527161 206.504974,259.682465 217.539536,259.682770 
	C287.526367,259.684753 357.513214,259.687775 428.000061,259.690125 
M561.192566,613.326233 
	C515.605286,576.869080 470.017944,540.411926 424.255310,503.814545 
	C423.010590,506.218292 423.380554,508.075775 423.379791,509.847382 
	C423.350037,578.654724 423.405701,647.462158 423.245483,716.269104 
	C423.234009,721.193420 425.125092,722.061829 429.400391,722.059204 
	C543.857178,721.987976 658.313965,721.986145 772.770752,722.090942 
	C777.325317,722.095093 778.758362,720.759216 778.749268,716.117676 
	C778.615479,647.477112 778.663696,578.836304 778.624634,510.195557 
	C778.623535,508.292603 779.129456,506.253601 777.645996,503.862305 
	C772.463867,508.018158 767.441101,512.055481 762.408691,516.080566 
	C711.424255,556.859558 660.435730,597.633545 609.455811,638.418152 
	C603.014587,643.571289 599.410828,643.751648 593.001160,638.705933 
	C582.530151,630.463013 572.160034,622.091919 561.192566,613.326233 
M297.055573,349.473175 
	C272.847137,330.106049 248.638718,310.738892 223.347809,290.505737 
	C223.347809,294.271057 223.347855,296.411224 223.347809,298.551422 
	C223.346436,367.050751 223.395615,435.550171 223.237244,504.049133 
	C223.225906,508.952454 225.051865,509.812714 229.370209,509.790924 
	C258.202515,509.645447 287.035919,509.716736 315.868988,509.715363 
	C343.202057,509.714081 370.535858,509.606934 397.867432,509.806305 
	C402.555939,509.840515 403.954224,508.355042 403.744141,503.802460 
	C403.414185,496.651337 403.593140,489.472382 403.692627,482.307159 
	C403.768890,476.814331 406.433350,473.558136 411.797577,472.565338 
	C414.393890,472.084808 417.097137,472.040192 419.752045,472.039032 
	C470.251526,472.017059 520.751038,472.035828 571.250488,472.032227 
	C578.592346,472.031708 578.653381,471.979218 578.655701,464.917450 
	C578.674072,409.251343 578.682861,353.585236 578.651978,297.919159 
	C578.650940,295.999268 579.173096,293.944550 577.931824,292.075470 
	C575.715149,292.267151 574.380066,293.875458 572.872925,295.067078 
	C564.376831,301.784149 555.932495,308.566681 547.480652,315.339600 
	C501.973846,351.806763 456.485809,388.297485 410.951019,424.729706 
	C402.365234,431.599121 399.544830,431.504486 390.890564,424.583038 
	C359.788208,399.708282 328.704559,374.810028 297.055573,349.473175 
M298.500122,279.422943 
	C280.780426,279.629486 263.060730,279.836029 244.582169,280.051392 
	C246.474701,283.988495 249.179428,285.472626 251.424805,287.271637 
	C299.530579,325.813873 347.722595,364.248688 395.765839,402.868561 
	C399.971283,406.249084 402.803406,405.469635 406.570129,402.449799 
	C455.707031,363.056396 504.931000,323.771637 554.116333,284.438599 
	C555.229431,283.548431 556.802490,282.973145 556.945312,281.159546 
	C556.558044,280.257660 555.665527,280.020874 554.892151,280.006897 
	C469.764771,278.464050 384.629059,280.502869 298.500122,279.422943 
M674.202209,560.682617 
	C702.318359,538.187012 730.434509,515.691467 759.295349,492.600037 
	C653.240906,492.600037 548.420898,492.600037 442.649078,492.600037 
	C445.299805,494.708740 447.216980,496.225586 449.125519,497.753296 
	C498.398621,537.194824 547.694824,576.607727 596.886780,616.150269 
	C600.013367,618.663513 602.068237,618.494629 605.031555,616.103333 
	C627.839844,597.697205 650.752563,579.420593 674.202209,560.682617 
z"/>
<path fill="#000000" opacity="1.000000" stroke="none" 
	d="
M269.146118,621.993042 
	C299.118500,621.996704 328.610840,621.983337 358.103088,622.031860 
	C360.751038,622.036194 363.468597,622.135620 366.030914,622.725098 
	C370.998596,623.868042 373.481567,627.474182 373.325317,632.624756 
	C373.179504,637.430542 370.028961,641.186401 365.324127,642.122253 
	C364.675812,642.251282 363.999634,642.287354 363.336365,642.287537 
	C330.178375,642.296448 297.020203,642.348572 263.862488,642.254517 
	C257.205994,642.235596 253.289734,637.756592 253.676071,631.343323 
	C253.952301,626.757751 256.535034,624.048035 260.733459,622.693542 
	C263.313507,621.861267 266.000427,621.989258 269.146118,621.993042 
z"/>
<path fill="#000000" opacity="1.000000" stroke="none" 
	d="
M693.000000,379.950317 
	C676.026306,379.959290 659.552490,379.986267 643.078918,379.955658 
	C640.928711,379.951660 638.731689,379.879974 636.638489,379.444519 
	C631.250000,378.323608 628.370728,374.412048 628.701233,369.029724 
	C629.012390,363.962494 632.761475,360.214050 638.070129,359.741180 
	C639.391785,359.623444 640.730896,359.693085 642.062012,359.693115 
	C672.846252,359.694366 703.630493,359.696655 734.414734,359.704559 
	C736.078003,359.704987 737.758118,359.614746 739.401306,359.810760 
	C744.455566,360.413513 747.995117,364.135773 748.310425,369.019684 
	C748.661255,374.455109 745.822754,378.310791 740.378418,379.428375 
	C738.283325,379.858398 736.086609,379.922150 733.935486,379.928894 
	C720.457092,379.971283 706.978516,379.950409 693.000000,379.950317 
z"/>
<path fill="#000000" opacity="1.000000" stroke="none" 
	d="
M351.982697,672.012085 
	C356.305176,672.084412 360.163208,671.870117 363.949951,672.293701 
	C370.333099,673.007690 373.680786,677.051025 373.319336,683.000244 
	C372.989624,688.427429 368.949005,692.241882 362.943390,692.267212 
	C342.631287,692.352905 322.318298,692.339355 302.006134,692.256409 
	C295.604156,692.230286 291.114410,688.096619 290.886566,682.431763 
	C290.659668,676.790405 295.258270,672.231140 302.038177,672.119263 
	C315.187927,671.902222 328.343384,672.030396 341.496460,672.016663 
	C344.826385,672.013184 348.156281,672.013672 351.982697,672.012085 
z"/>
<path fill="#000000" opacity="1.000000" stroke="none" 
	d="
M702.945923,329.427917 
	C681.232483,330.385864 659.928162,329.886536 638.626282,329.822601 
	C638.133179,329.821136 637.637695,329.688934 637.147888,329.594116 
	C631.488708,328.499023 628.364258,324.595184 628.705872,319.052826 
	C629.021362,313.934143 632.692322,309.857971 638.065979,309.811279 
	C659.042236,309.628906 680.021545,309.647186 700.998352,309.794769 
	C706.351624,309.832428 710.192139,313.575073 711.006958,318.583984 
	C711.751343,323.159729 708.931580,327.135162 702.945923,329.427917 
z"/>
<path fill="#000000" opacity="1.000000" stroke="none" 
	d="
M651.000122,429.939362 
	C646.354919,429.875214 642.178650,430.082550 638.060669,429.685150 
	C631.819092,429.082794 628.327759,424.872772 628.705750,419.006348 
	C629.060364,413.501892 632.980652,409.844299 639.060913,409.741943 
	C647.031311,409.607727 655.007874,409.599335 662.977600,409.752838 
	C669.220215,409.873047 673.185791,413.786194 673.326904,419.540222 
	C673.466431,425.230652 670.122070,429.048523 663.937317,429.649445 
	C659.819397,430.049622 655.644531,429.863678 651.000122,429.939362 
z"/>
<path fill="#000000" opacity="1.000000" stroke="none" 
	d="
M359.847137,592.311523 
	C352.714417,592.307007 346.058807,592.383850 339.406311,592.273926 
	C333.017853,592.168335 328.989624,588.524414 328.694031,582.836792 
	C328.379486,576.785461 331.947510,572.570618 338.694031,572.211243 
	C346.655548,571.787109 354.664276,571.836487 362.635590,572.134399 
	C369.756714,572.400513 373.511108,576.404419 373.321655,582.651062 
	C373.138641,588.686035 369.034576,592.133667 361.822815,592.307556 
	C361.324005,592.319580 360.824707,592.310486 359.847137,592.311523 
z"/>
<path fill="#000000" opacity="1.000000" stroke="none" 
	d="
M281.802917,574.758911 
	C289.472717,570.480896 297.303162,571.283752 304.866699,573.152710 
	C309.223114,574.229187 311.272125,578.331421 311.087311,582.920898 
	C310.903442,587.486572 307.187103,591.736816 302.676086,592.085876 
	C297.559052,592.481873 292.338409,592.652466 287.253326,592.095032 
	C278.965637,591.186523 276.149017,582.382385 281.802917,574.758911 
z"/>
<path fill="#000000" opacity="1.000000" stroke="none" 
	d="
M717.722412,410.759338 
	C722.844177,413.623718 724.310242,417.876770 722.961182,422.848785 
	C721.659607,427.645416 717.757629,429.571899 713.049133,429.774750 
	C708.564270,429.967957 704.055725,430.261566 699.590393,429.495453 
	C694.514771,428.624603 691.149353,424.889496 690.938232,420.005981 
	C690.735779,415.323578 694.133789,410.504547 699.011475,410.046875 
	C705.084167,409.477051 711.281677,408.875580 717.722412,410.759338 
z"/>
<path fill="#000000" opacity="1.000000" stroke="none" 
	d="
M269.823029,689.980957 
	C262.247650,693.802795 254.644653,692.833374 247.242615,691.276489 
	C242.881943,690.359253 241.013657,686.334290 240.966888,682.098389 
	C240.918716,677.737976 243.228256,674.286194 247.470352,673.052246 
	C253.943619,671.169250 260.698883,671.124023 267.101593,673.062988 
	C274.126373,675.190369 275.372772,683.202271 269.823029,689.980957 
z"/>
<path fill="#000000" opacity="1.000000" stroke="none" 
	d="
M235.873291,630.512085 
	C235.752640,638.584106 232.238312,642.165894 224.693146,642.299438 
	C221.042465,642.364014 217.385788,642.401917 213.738419,642.269897 
	C207.992584,642.061951 204.086334,638.485107 203.680466,633.257263 
	C203.226883,627.415100 206.298508,623.331360 212.224152,622.400574 
	C216.990250,621.651978 221.837402,621.745850 226.624084,622.266785 
	C231.358719,622.782104 234.591995,625.328125 235.873291,630.512085 
z"/>
<path fill="#000000" opacity="1.000000" stroke="none" 
	d="
M773.000854,360.327332 
	C778.682861,359.196625 784.025269,359.594666 789.318115,359.851135 
	C794.378174,360.096313 797.971191,364.042633 798.327637,368.904175 
	C798.730774,374.403442 795.997681,378.219116 790.544250,379.415802 
	C785.778992,380.461517 780.919861,380.135925 776.123596,379.702637 
	C770.500488,379.194702 767.042908,376.191223 766.090271,371.516418 
	C765.166870,366.985229 767.336548,363.315186 773.000854,360.327332 
z"/>
<path fill="#000000" opacity="1.000000" stroke="none" 
	d="
M740.261536,309.702850 
	C744.045105,309.710785 747.371338,309.593597 750.684082,309.753876 
	C756.734924,310.046692 761.023926,314.204803 761.144775,319.692047 
	C761.256714,324.777618 757.162048,329.153137 751.316833,329.692932 
	C747.529907,330.042664 743.682617,329.988922 739.875732,329.818420 
	C732.671204,329.495728 728.685547,325.813324 728.693542,319.784546 
	C728.701660,313.689301 732.489624,310.250275 740.261536,309.702850 
z"/>
<path fill="#000000" opacity="1.000000" stroke="none" 
	d="
M711.000000,692.303894 
	C703.509338,692.301086 696.517639,692.370667 689.528259,692.274719 
	C682.501770,692.178162 678.718567,688.436951 678.688293,681.442932 
	C678.618469,665.298096 678.625916,649.152649 678.688110,633.007751 
	C678.713745,626.354736 681.893127,622.403381 688.547668,622.270996 
	C705.182068,621.940002 721.832336,621.935181 738.466187,622.281738 
	C745.138184,622.420776 748.298767,626.378601 748.326294,633.026855 
	C748.393127,649.171753 748.412415,665.317261 748.347473,681.462097 
	C748.319519,688.403931 744.461975,692.209534 737.465149,692.282898 
	C728.810974,692.373657 720.155151,692.304077 711.000000,692.303894 
M711.512573,642.277527 
	C708.681152,642.279419 705.844421,642.390503 703.019592,642.255127 
	C699.622498,642.092346 698.207825,643.487305 698.286194,646.950745 
	C698.440796,653.776184 698.398987,660.607971 698.318237,667.435791 
	C698.280640,670.615051 699.688660,671.983704 702.824524,671.938354 
	C708.985718,671.849060 715.148926,671.898071 721.310303,671.817017 
	C725.566650,671.761108 727.725281,669.270630 727.991211,665.265198 
	C728.343872,659.954041 728.580383,654.620911 728.525940,649.300720 
	C728.464050,643.244446 727.427795,642.373474 721.494690,642.309570 
	C718.497009,642.277283 715.498718,642.288940 711.512573,642.277527 
z"/>
<path fill="#000000" opacity="1.000000" stroke="none" 
	d="
M256.048157,413.179230 
	C258.709930,410.522736 261.613464,409.700897 264.942322,409.712402 
	C280.750092,409.767120 296.558472,409.675446 312.366089,409.749847 
	C319.735291,409.784515 324.225708,414.741577 323.254761,421.460144 
	C322.512939,426.593262 318.619324,429.694305 311.970917,429.916992 
	C305.155518,430.145294 298.327942,430.038391 291.505737,430.028351 
	C282.520508,430.015167 273.523712,430.224365 264.553284,429.839417 
	C254.786362,429.420319 250.957031,421.968811 256.048157,413.179230 
z"/>
<path fill="#000000" opacity="1.000000" stroke="none" 
	d="
M308.911621,459.707336 
	C311.214813,459.748962 313.069305,459.601501 314.861786,459.869202 
	C319.753754,460.599762 323.171204,464.587128 323.319214,469.493469 
	C323.468384,474.438049 320.817444,478.237701 315.881287,479.294006 
	C310.322937,480.483429 304.618225,480.414246 299.041382,479.459106 
	C293.914459,478.580994 290.646301,473.977142 291.005615,468.991577 
	C291.367584,463.969818 295.181824,460.160278 300.462677,459.776855 
	C303.107758,459.584808 305.776550,459.720276 308.911621,459.707336 
z"/>
<path fill="#000000" opacity="1.000000" stroke="none" 
	d="
M273.138489,472.443756 
	C270.261505,478.334229 266.636139,480.435577 261.661377,479.456085 
	C257.134460,478.564789 254.029282,475.057892 253.712677,470.479126 
	C253.384155,465.727966 256.165192,461.713959 260.669067,460.161530 
	C266.037781,458.310944 275.010986,462.400238 273.138489,472.443756 
z"/>
</svg>