<svg version="1.1" id="Layer_1" xmlns="http://www.w3.org/2000/svg" xmlns:xlink="http://www.w3.org/1999/xlink" x="0px" y="0px"
	 width="100%" viewBox="0 0 496 496" enable-background="new 0 0 496 496" xml:space="preserve">
<path fill="#000000" opacity="1.000000" stroke="none" 
	d="
M159.703598,262.084137 
	C158.328857,251.090240 156.891129,240.551376 155.682983,229.986267 
	C155.342346,227.007401 153.417267,225.255554 151.670776,223.301254 
	C149.563095,220.942764 147.264633,218.743317 145.750778,215.920654 
	C144.944748,214.417755 144.175552,212.751068 145.823975,211.388855 
	C147.345169,210.131821 148.974014,210.662979 150.373474,211.800461 
	C151.524033,212.735641 152.590591,213.774155 153.690445,214.763321 
	C155.051239,214.141022 154.262619,212.981934 154.447144,212.133438 
	C154.812607,210.453079 154.997772,208.673798 157.182495,208.551651 
	C159.249161,208.436127 160.037262,209.910370 160.443253,211.666290 
	C160.593338,212.315430 160.947205,212.988358 160.870087,213.608383 
	C159.824432,222.016464 165.171280,226.777466 170.554428,231.982025 
	C188.287231,249.126541 206.298462,265.925415 225.991882,280.830292 
	C227.549316,282.009033 228.998077,283.450287 231.590744,283.803986 
	C229.191116,274.263550 226.753265,264.998749 224.537750,255.681046 
	C218.311264,229.494781 218.085022,203.011658 220.425873,176.346863 
	C221.429611,164.913208 222.412643,153.498886 224.785400,142.267014 
	C225.342789,139.628494 225.411102,135.115219 229.623352,136.270981 
	C233.503876,137.335754 231.874588,141.234055 231.103363,144.012115 
	C225.429993,164.447968 225.302155,185.410706 225.090424,206.361755 
	C224.830734,232.059387 229.006287,256.992554 238.104706,281.073578 
	C239.218414,284.021301 239.924637,287.121460 240.863998,290.137177 
	C241.371887,291.767761 241.973114,293.459076 240.270752,294.678009 
	C238.738403,295.775208 237.052185,295.405914 235.589462,294.418152 
	C230.900482,291.251801 226.120132,288.199615 221.612503,284.789459 
	C201.931549,269.900360 183.710892,253.288528 165.372238,236.819290 
	C164.763107,236.272263 164.125885,235.756516 162.797714,234.627975 
	C163.410263,243.526199 163.864639,251.679764 164.553741,259.813477 
	C165.986084,276.720032 167.628754,293.611694 167.336273,310.610840 
	C167.212967,317.778595 162.426117,321.730652 156.875900,324.653687 
	C150.890045,327.806091 144.643936,327.353577 138.772110,323.890228 
	C137.454788,323.113190 136.412704,321.839966 137.240906,320.122009 
	C138.139465,318.258118 139.942032,317.936554 141.505249,318.745453 
	C148.480759,322.355286 154.437897,320.882812 159.432220,315.220428 
	C163.997650,310.044342 165.238235,304.149902 164.052826,297.137085 
	C162.117004,285.684662 161.120438,274.073456 159.703598,262.084137 
z"/>
<path fill="#000000" opacity="1.000000" stroke="none" 
	d="
M283.767456,268.185181 
	C286.476929,272.598694 285.847137,277.120605 285.704376,281.561157 
	C285.659363,282.961975 285.091339,284.187164 283.340973,284.168701 
	C281.329651,284.147461 280.904205,282.762695 280.851471,281.147278 
	C280.786499,279.156067 280.809906,277.162109 280.761719,275.170135 
	C280.720306,273.459991 280.613617,271.615326 278.434021,271.372528 
	C276.011505,271.102722 274.701569,272.670868 274.366028,274.846771 
	C274.039032,276.967285 274.114655,279.147675 273.965179,281.298431 
	C273.851898,282.928741 273.347687,284.279388 271.323395,284.146851 
	C269.604797,284.034393 269.087311,282.768158 269.079834,281.379547 
	C269.034149,272.912445 269.029053,264.444519 269.104523,255.977722 
	C269.118256,254.436676 269.650940,252.878571 271.682495,253.031479 
	C273.703278,253.183594 273.869080,254.869400 273.904663,256.354218 
	C273.991394,259.970764 273.932922,263.590759 273.932922,267.588898 
	C277.513336,267.207092 280.636261,265.659485 283.767456,268.185181 
z"/>
<path fill="#000000" opacity="1.000000" stroke="none" 
	d="
M262.763763,284.261841 
	C258.298767,284.283905 258.701141,279.013550 255.270294,278.025757 
	C254.927795,278.562561 254.586472,278.931610 254.433060,279.366913 
	C253.803635,281.153137 255.104797,284.435364 251.556732,283.995850 
	C248.667618,283.637970 249.729385,280.842133 249.697876,279.071320 
	C249.570663,271.921753 249.588455,264.767456 249.698837,257.617188 
	C249.726288,255.840286 248.891586,252.996323 252.038620,253.136459 
	C254.987030,253.267746 254.192795,256.018158 254.240875,257.840240 
	C254.358917,262.314423 254.279465,266.793823 254.279465,271.666595 
	C257.052368,271.330505 258.271484,269.048828 260.220825,268.063995 
	C261.332001,267.502655 262.375122,267.022186 263.372986,268.108002 
	C264.483704,269.316589 263.751556,270.428131 262.758728,271.042542 
	C258.515778,273.668182 260.461884,276.331726 262.369354,279.275360 
	C263.272644,280.669342 266.294006,282.089600 262.763763,284.261841 
z"/>
<path fill="#000000" opacity="1.000000" stroke="none" 
	d="
M321.122803,266.964233 
	C321.788483,267.206696 322.140442,267.285980 322.385071,267.492462 
	C324.292786,269.102875 327.924805,265.222870 328.754822,269.059875 
	C329.733429,273.583710 329.503235,278.297791 328.744019,282.911835 
	C328.679199,283.305878 328.048828,283.960175 327.778992,283.914612 
	C323.265747,283.152222 318.704102,286.286163 314.229736,283.746613 
	C310.641998,281.710236 308.901672,277.053864 310.188568,272.924286 
	C311.589050,268.430084 314.749969,266.616699 321.122803,266.964233 
M323.977539,275.541016 
	C323.882233,272.287170 322.093689,270.483765 318.957153,270.686951 
	C316.344177,270.856171 314.739197,272.839874 314.575623,275.379028 
	C314.407990,277.980682 316.000580,279.902863 318.489563,280.459961 
	C321.683167,281.174805 323.563721,279.590607 323.977539,275.541016 
z"/>
<path fill="#000000" opacity="1.000000" stroke="none" 
	d="
M306.053467,277.830383 
	C306.004028,279.469086 306.012909,280.637939 305.891449,281.793060 
	C305.731964,283.308960 304.977722,284.255920 303.291779,284.140778 
	C301.834015,284.041168 301.164612,283.024872 301.157166,281.815948 
	C301.102783,273.002319 301.103363,264.187714 301.192017,255.374481 
	C301.206543,253.930908 302.091797,252.819122 303.787537,253.023880 
	C305.783478,253.264908 305.977844,254.885498 305.991882,256.387634 
	C306.057343,263.376129 306.040894,270.365417 306.053467,277.830383 
z"/>
<path fill="#000000" opacity="1.000000" stroke="none" 
	d="
M239.612061,279.808777 
	C239.626984,276.702728 239.583847,274.066254 239.685379,271.435394 
	C239.750992,269.734955 239.224442,267.333069 242.014786,267.469452 
	C244.658936,267.598724 244.141586,269.958252 244.195374,271.667053 
	C244.283371,274.463043 244.268951,277.265411 244.193710,280.062256 
	C244.151321,281.637909 244.530777,283.721039 242.248734,283.993713 
	C239.458908,284.327087 239.810043,282.016907 239.612061,279.808777 
z"/>
<path fill="#000000" opacity="1.000000" stroke="none" 
	d="
M294.714783,283.459320 
	C292.036133,284.626465 290.889801,283.581604 290.849579,281.249603 
	C290.786316,277.585297 290.825989,273.918488 290.871307,270.253387 
	C290.888977,268.822144 291.285553,267.515228 293.052124,267.502319 
	C295.175537,267.486786 295.351013,269.070770 295.323608,270.635345 
	C295.250732,274.790497 295.116180,278.944580 294.714783,283.459320 
z"/>
</svg>